HIERARCHY
ROOT Hips
{
	OFFSET	0.00	0.00	0.00
	CHANNELS 6 Xposition Yposition Zposition Zrotation Xrotation Yrotation
	JOINT LeftUpLeg
	{
		OFFSET	 0.126116	-0.014019	-0.065224
		CHANNELS 3 Zrotation Xrotation Yrotation
		JOINT LeftLeg
		{
			OFFSET	 0.000000	 0.000000	 0.569914
			CHANNELS 3 Zrotation Xrotation Yrotation
			JOINT LeftFoot
			{
				OFFSET	 0.000000	 0.000000	 0.544423
				CHANNELS 3 Zrotation Xrotation Yrotation
				JOINT LeftToeBase
				{
					OFFSET	 0.000000	 0.000000	 0.207117
					CHANNELS 3 Zrotation Xrotation Yrotation
					End Site
					{
						OFFSET	 0.000000	 0.000000	 0.207117
					}
				}
			}
		}
	}
	JOINT RightUpLeg
	{
		OFFSET	-0.124023	-0.008373	-0.065224
		CHANNELS 3 Zrotation Xrotation Yrotation
		JOINT RightLeg
		{
			OFFSET	 0.000000	 0.000000	 0.570047
			CHANNELS 3 Zrotation Xrotation Yrotation
			JOINT RightFoot
			{
				OFFSET	 0.000000	 0.000000	 0.544354
				CHANNELS 3 Zrotation Xrotation Yrotation
				JOINT RightToeBase
				{
					OFFSET	 0.000000	 0.000000	 0.207540
					CHANNELS 3 Zrotation Xrotation Yrotation
					End Site
					{
						OFFSET	 0.000000	 0.000000	 0.207540
					}
				}
			}
		}
	}
	JOINT Spine
	{
		OFFSET	 0.000184	-0.007763	 0.117403
		CHANNELS 3 Zrotation Xrotation Yrotation
		JOINT Spine1
		{
			OFFSET	 0.000000	 0.000000	 0.137269
			CHANNELS 3 Zrotation Xrotation Yrotation
			JOINT Spine2
			{
				OFFSET	 0.000000	 0.000000	 0.156879
				CHANNELS 3 Zrotation Xrotation Yrotation
				JOINT LeftShoulder
				{
					OFFSET	 0.080501	-0.002496	 0.160144
					CHANNELS 3 Zrotation Xrotation Yrotation
					JOINT LeftArm
					{
						OFFSET	 0.000000	 0.000000	 0.164363
						CHANNELS 3 Zrotation Xrotation Yrotation
						JOINT LeftForeArm
						{
							OFFSET	 0.000000	 0.000000	 0.364576
							CHANNELS 3 Zrotation Xrotation Yrotation
							JOINT LeftHand
							{
								OFFSET	 0.000000	 0.000000	 0.360812
								CHANNELS 3 Zrotation Xrotation Yrotation
								JOINT LeftHandIndex1
								{
									OFFSET	 0.000000	 0.000000	 0.086006
									CHANNELS 3 Zrotation Xrotation Yrotation
									JOINT LeftHandIndex2
									{
										OFFSET	 0.000000	 0.000000	 0.047236
										CHANNELS 3 Zrotation Xrotation Yrotation
										JOINT LeftHandIndex3
										{
											OFFSET	-0.004284	-0.000551	 0.038166
											CHANNELS 3 Zrotation Xrotation Yrotation
											End Site
											{
												OFFSET	-0.004284	-0.000551	 0.038166
											}
										}
									}
								}
							}
						}
					}
				}
				JOINT Neck
				{
					OFFSET	 0.000000	 0.000000	 0.176489
					CHANNELS 3 Zrotation Xrotation Yrotation
					JOINT Head
					{
						OFFSET	 0.000000	-0.001747	 0.077940
						CHANNELS 3 Zrotation Xrotation Yrotation
						End Site
						{
							OFFSET	 0.000000	-0.001747	 0.077940
						}
					}
				}
				JOINT RightShoulder
				{
					OFFSET	-0.080363	 0.000306	 0.159706
					CHANNELS 3 Zrotation Xrotation Yrotation
					JOINT RightArm
					{
						OFFSET	 0.000000	 0.000000	 0.164196
						CHANNELS 3 Zrotation Xrotation Yrotation
						JOINT RightForeArm
						{
							OFFSET	 0.000000	 0.000000	 0.365611
							CHANNELS 3 Zrotation Xrotation Yrotation
							JOINT RightHand
							{
								OFFSET	 0.000000	 0.000000	 0.360648
								CHANNELS 3 Zrotation Xrotation Yrotation
								JOINT RightHandIndex1
								{
									OFFSET	 0.000000	 0.000000	 0.069977
									CHANNELS 3 Zrotation Xrotation Yrotation
									JOINT RightHandIndex2
									{
										OFFSET	 0.000000	 0.000000	 0.052305
										CHANNELS 3 Zrotation Xrotation Yrotation
										JOINT RightHandIndex3
										{
											OFFSET	 0.009002	-0.000782	 0.042196
											CHANNELS 3 Zrotation Xrotation Yrotation
											End Site
											{
												OFFSET	 0.009002	-0.000782	 0.042196
											}
										}
									}
								}
							}
						}
					}
				}
			}
		}
	}
}
MOTION
Frames:    9
Frame Time: 0.03333334
-1.982983	-11.409070	 0.457331	-27.466850	 0.273457	 0.575147	 1.965813	-33.442290	 172.308400	-6.544327	-69.111660	-7.247987	 177.354700	 86.527240	 179.645900	-2.318794	 38.049290	-0.224521	-0.498565	-35.052710	-177.327900	 2.001698	-74.040830	 4.406407	-178.204900	 85.193270	 179.751400	 2.402929	 22.550060	-0.121987	 27.869750	 13.862840	 2.245567	-9.183252	 7.514117	-1.515372	-10.674120	 4.275485	-0.309033	-143.739000	 89.584100	-124.695700	 50.077190	 61.125240	-77.925840	-4.407547	-6.785701	-27.304610	 1.515814	-45.661090	-3.306401	-3.812334	 37.924440	-2.927599	-2.450526	 36.184240	 0.754587	-1.378229	 35.397820	-2.634230	 1.483688	 2.631934	-3.163991	-2.195810	 7.239296	 3.227262	 93.883620	 85.920810	 171.594500	-54.134240	 70.360300	 73.361920	-15.309930	-17.011940	 26.761890	-23.780350	-46.565480	 9.364388	 6.437017	 35.671460	-0.771858	 2.830251	 35.756010	-7.813440	-2.350882	 35.473990	 5.254307
-1.978734	-11.407470	 0.473910	-28.770710	 2.379808	 0.398888	 2.386649	-34.371840	 172.516200	-5.232045	-66.610730	-5.486676	 176.463400	 87.465800	-179.058100	-2.340030	 35.722430	-0.166374	 0.241905	-35.840250	-177.559300	 1.499055	-70.543610	 4.344049	-177.256700	 85.896870	 179.070600	 2.405883	 20.614160	-0.160888	 24.114930	 13.935040	 2.090805	-9.079821	 7.123684	-1.527823	-10.400090	 3.870233	-0.337997	-128.332700	 89.454640	-140.079700	 47.582100	 61.166590	-76.327770	-2.067024	-8.361669	-27.997340	 3.609096	-49.889850	-1.848242	-3.812334	 37.924440	-2.927599	-2.450526	 36.184240	 0.754587	-1.378229	 35.397820	-2.634230	 1.735537	 2.313191	-3.087194	-1.973404	 6.949035	 3.907560	 94.174840	 86.000170	 171.134600	-54.040860	 70.796210	 73.151860	-17.927790	-18.309210	 27.394120	-25.063910	-50.857440	 8.397585	 6.437017	 35.671460	-0.771858	 2.830251	 35.756010	-7.813440	-2.350882	 35.473990	 5.254307
-1.974049	-11.406020	 0.489750	-29.983880	 4.447555	-0.002524	 2.854479	-35.300020	 173.018200	-4.386988	-64.353420	-4.189344	 174.213800	 88.433770	-176.429000	-2.354570	 33.857750	-0.121699	 1.029555	-36.959840	-177.336600	 0.603061	-68.041330	 3.953225	-175.542100	 86.883220	 177.398200	 2.406604	 19.913050	-0.174826	 19.335080	 13.888290	 2.104394	-8.994539	 6.758360	-1.453018	-10.134220	 3.478554	-0.364071	-121.625800	 89.361420	-146.825600	 45.149440	 60.962760	-74.914990	-0.091061	-9.819489	-28.684480	 5.531298	-52.911130	-0.157939	-3.812334	 37.924440	-2.927599	-2.450526	 36.184240	 0.754587	-1.378229	 35.397820	-2.634230	 1.967983	 2.079666	-2.951895	-1.739540	 6.652711	 4.658925	 94.379990	 86.051860	 170.812600	-53.996700	 71.405620	 72.614510	-20.131870	-19.467020	 27.966550	-26.421950	-53.972310	 7.118044	 6.437017	 35.671460	-0.771858	 2.830251	 35.756010	-7.813440	-2.350882	 35.473990	 5.254307
-1.969661	-11.405760	 0.504156	-31.370280	 6.103264	-0.495182	 3.687432	-35.615340	 173.690700	-4.195786	-62.093540	-3.281574	 164.689900	 89.382610	-166.612500	-2.364796	 32.357420	-0.086848	 1.792140	-38.084110	-176.814000	-1.125509	-66.120780	 2.785332	-171.918900	 88.112280	 173.380700	 2.407090	 19.287520	-0.187209	 12.981940	 14.246420	 2.368131	-8.809906	 6.644139	-1.295196	-9.880999	 3.190253	-0.379858	-118.698000	 89.304230	-149.764900	 42.898370	 60.802960	-74.296390	 2.042226	-11.514980	-29.294160	 8.139209	-54.516370	 1.735768	-3.812334	 37.924440	-2.927599	-2.450526	 36.184240	 0.754587	-1.378229	 35.397820	-2.634230	 2.215748	 1.871156	-2.845893	-1.545069	 6.446717	 5.207136	 94.514810	 86.094960	 170.620900	-53.675660	 72.155110	 71.737200	-22.777410	-20.672010	 28.222050	-28.770610	-55.700850	 5.422411	 6.437017	 35.671460	-0.771858	 2.830251	 35.756010	-7.813440	-2.350882	 35.473990	 5.254307
-1.967984	-11.406300	 0.512848	-31.928220	 7.076317	-0.668276	 4.224922	-35.761390	 173.998200	-3.948507	-60.623210	-2.602327	 112.327400	 89.827540	-113.967900	-2.368588	 31.748730	-0.072966	 1.855126	-38.267100	-176.628800	-2.126492	-64.632640	 1.846772	-168.482600	 88.690150	 169.571600	 2.407095	 19.285050	-0.187254	 7.235547	 14.525050	 2.415817	-8.852445	 6.748462	-1.212779	-9.810858	 3.154482	-0.380219	-118.106100	 89.308460	-150.441700	 41.614400	 60.966560	-74.576420	 3.612154	-12.793120	-29.474240	 10.409760	-54.296630	 2.908942	-3.812334	 37.924440	-2.927599	-2.450526	 36.184240	 0.754587	-1.378229	 35.397820	-2.634230	 2.258689	 1.894844	-2.739583	-1.438090	 6.353475	 5.171687	 94.636560	 86.140400	 170.462200	-52.996930	 72.855680	 70.565970	-24.801510	-21.373670	 28.099560	-30.953370	-55.572690	 4.138833	 6.437017	 35.671460	-0.771858	 2.830251	 35.756010	-7.813440	-2.350882	 35.473990	 5.254307
-1.967245	-11.406060	 0.520815	-31.848850	 8.013264	-0.679053	 4.456107	-36.165090	 174.112200	-3.460944	-59.275510	-1.943096	 26.785760	 89.645570	-28.111680	-2.369006	 31.679410	-0.071392	 1.396620	-38.528240	-176.580600	-2.300782	-63.179450	 1.290323	-162.498900	 89.129350	 163.355600	 2.406873	 19.595130	-0.181127	-0.172969	 14.676570	 2.311631	-9.088183	 6.922239	-1.310725	-9.854018	 3.235652	-0.374900	-120.617800	 89.391870	-148.092900	 40.824950	 61.177730	-75.408130	 4.867960	-14.123600	-29.875470	 12.199090	-52.363120	 3.658450	-3.812334	 37.924440	-2.927599	-2.450526	 36.184240	 0.754587	-1.378229	 35.397820	-2.634230	 2.136427	 2.020809	-2.727267	-1.354418	 6.322455	 4.955369	 94.620930	 86.090540	 170.403200	-51.456580	 73.901440	 68.276700	-26.841700	-22.001690	 27.822600	-33.517350	-53.734620	 2.981375	 6.437017	 35.671460	-0.771858	 2.830251	 35.756010	-7.813440	-2.350882	 35.473990	 5.254307
-1.968360	-11.407310	 0.527128	-31.465510	 8.662100	-0.690335	 4.436514	-36.273250	 174.137100	-2.944912	-58.339620	-1.475433	 14.914820	 89.384510	-15.991860	-2.369828	 31.543320	-0.068302	 0.944183	-38.457250	-176.631200	-1.653740	-62.133920	 1.506730	-157.552600	 89.330310	 158.550200	 2.405871	 20.626190	-0.160648	-8.255467	 14.781330	 2.337192	-9.346622	 7.067482	-1.512481	-9.946114	 3.335844	-0.369702	-134.130800	 89.574330	-134.710600	 41.078070	 61.167450	-76.851940	 5.805891	-15.584070	-30.983380	 13.109510	-48.475980	 3.616683	-3.812334	 37.924440	-2.927599	-2.450526	 36.184240	 0.754587	-1.378229	 35.397820	-2.634230	 1.951394	 2.016283	-2.945813	-1.317342	 6.365404	 4.701402	 94.344800	 85.886200	 170.590300	-49.168570	 75.169360	 65.137030	-28.355650	-22.639840	 27.650780	-35.869540	-49.937790	 2.397757	 6.437017	 35.671460	-0.771858	 2.830251	 35.756010	-7.813440	-2.350882	 35.473990	 5.254307
-1.970723	-11.409760	 0.531341	-30.986810	 9.077246	-0.656414	 4.291613	-36.292480	 174.090200	-2.468337	-57.691800	-1.147559	 11.584190	 89.195950	-12.475490	-2.373908	 30.837220	-0.052417	 0.755089	-38.252460	-176.851100	-0.731027	-61.489560	 2.177316	-151.308100	 89.457520	 152.691400	 2.403196	 22.408980	-0.124846	-15.746040	 14.723300	 2.335078	-9.561796	 7.138734	-1.651761	-10.035730	 3.399416	-0.367467	-161.231800	 89.699990	-107.710300	 42.335190	 60.904170	-78.443210	 6.574933	-16.945630	-32.470920	 13.305850	-43.356190	 2.922054	-3.812334	 37.924440	-2.927599	-2.450526	 36.184240	 0.754587	-1.378229	 35.397820	-2.634230	 1.781113	 1.958566	-3.051753	-1.290333	 6.366565	 4.279650	 94.141410	 85.722320	 170.719800	-47.313780	 76.056660	 62.413660	-29.409090	-23.164700	 27.637290	-37.466150	-44.897410	 2.487810	 6.437017	 35.671460	-0.771858	 2.830251	 35.756010	-7.813440	-2.350882	 35.473990	 5.254307
-1.973712	-11.412990	 0.534170	-30.534560	 9.342861	-0.742862	 4.140881	-36.177190	 174.184700	-2.223165	-57.156010	-1.035370	 9.699001	 89.033080	-10.531340	-2.375012	 30.637210	-0.047949	 0.828088	-38.086550	-176.866900	 0.026167	-61.061620	 2.881505	-155.817400	 89.380710	 157.616300	 2.399543	 24.077450	-0.090816	-22.873230	 14.511960	 2.512762	-9.709066	 7.120214	-1.714061	-10.091770	 3.390152	-0.370348	 167.456300	 89.718840	-76.482010	 44.189370	 60.481590	-80.300700	 6.953657	-18.125370	-34.172120	 13.012570	-37.137850	 1.799367	-3.812334	 37.924440	-2.927599	-2.450526	 36.184240	 0.754587	-1.378229	 35.397820	-2.634230	 1.651558	 1.905430	-3.202186	-1.258766	 6.240813	 4.002003	 93.949030	 85.577380	 170.873800	-46.349750	 76.636220	 60.577730	-30.004480	-23.594310	 27.777000	-38.437060	-38.747630	 3.083335	 6.437017	 35.671460	-0.771858	 2.830251	 35.756010	-7.813440	-2.350882	 35.473990	 5.254307
